<svg xmlns="http://www.w3.org/2000/svg" xml:space="preserve" xmlns:xlink="http://www.w3.org/1999/xlink" style="max-width: 100%;height: auto;" width="1111.6666666667" height="1130.8263888889" viewBox="0 0 1111.6666666667 1130.8263888889">
<defs><mask id="qrmask"><g fill="#ffffff"><g>
<g transform="translate(425.83333333333,265.83333333333) scale(3.4333333333333)"><rect width="6" height="6"/></g>
<g transform="translate(445.83333333333,265.83333333333) scale(3.4333333333333)"><rect width="6" height="6"/></g>
<g transform="translate(485.83333333333,265.83333333333) scale(3.4333333333333)"><rect width="6" height="6"/></g>
<g transform="translate(505.83333333333,265.83333333333) scale(3.4333333333333)"><rect width="6" height="6"/></g>
<g transform="translate(565.83333333333,265.83333333333) scale(3.4333333333333)"><rect width="6" height="6"/></g>
<g transform="translate(605.83333333333,265.83333333333) scale(3.4333333333333)"><rect width="6" height="6"/></g>
<g transform="translate(625.83333333333,265.83333333333) scale(3.4333333333333)"><rect width="6" height="6"/></g>
<g transform="translate(425.83333333333,285.83333333333) scale(3.4333333333333)"><rect width="6" height="6"/></g>
<g transform="translate(445.83333333333,285.83333333333) scale(3.4333333333333)"><rect width="6" height="6"/></g>
<g transform="translate(465.83333333333,285.83333333333) scale(3.4333333333333)"><rect width="6" height="6"/></g>
<g transform="translate(485.83333333333,285.83333333333) scale(3.4333333333333)"><rect width="6" height="6"/></g>
<g transform="translate(545.83333333333,285.83333333333) scale(3.4333333333333)"><rect width="6" height="6"/></g>
<g transform="translate(605.83333333333,285.83333333333) scale(3.4333333333333)"><rect width="6" height="6"/></g>
<g transform="translate(425.83333333333,305.83333333333) scale(3.4333333333333)"><rect width="6" height="6"/></g>
<g transform="translate(505.83333333333,305.83333333333) scale(3.4333333333333)"><rect width="6" height="6"/></g>
<g transform="translate(525.83333333333,305.83333333333) scale(3.4333333333333)"><rect width="6" height="6"/></g>
<g transform="translate(545.83333333333,305.83333333333) scale(3.4333333333333)"><rect width="6" height="6"/></g>
<g transform="translate(565.83333333333,305.83333333333) scale(3.4333333333333)"><rect width="6" height="6"/></g>
<g transform="translate(585.83333333333,305.83333333333) scale(3.4333333333333)"><rect width="6" height="6"/></g>
<g transform="translate(625.83333333333,305.83333333333) scale(3.4333333333333)"><rect width="6" height="6"/></g>
<g transform="translate(645.83333333333,305.83333333333) scale(3.4333333333333)"><rect width="6" height="6"/></g>
<g transform="translate(465.83333333333,325.83333333333) scale(3.4333333333333)"><rect width="6" height="6"/></g>
<g transform="translate(525.83333333333,325.83333333333) scale(3.4333333333333)"><rect width="6" height="6"/></g>
<g transform="translate(565.83333333333,325.83333333333) scale(3.4333333333333)"><rect width="6" height="6"/></g>
<g transform="translate(585.83333333333,325.83333333333) scale(3.4333333333333)"><rect width="6" height="6"/></g>
<g transform="translate(605.83333333333,325.83333333333) scale(3.4333333333333)"><rect width="6" height="6"/></g>
<g transform="translate(465.83333333333,345.83333333333) scale(3.4333333333333)"><rect width="6" height="6"/></g>
<g transform="translate(485.83333333333,345.83333333333) scale(3.4333333333333)"><rect width="6" height="6"/></g>
<g transform="translate(545.83333333333,345.83333333333) scale(3.4333333333333)"><rect width="6" height="6"/></g>
<g transform="translate(605.83333333333,345.83333333333) scale(3.4333333333333)"><rect width="6" height="6"/></g>
<g transform="translate(625.83333333333,345.83333333333) scale(3.4333333333333)"><rect width="6" height="6"/></g>
<g transform="translate(645.83333333333,345.83333333333) scale(3.4333333333333)"><rect width="6" height="6"/></g>
<g transform="translate(425.83333333333,365.83333333333) scale(3.4333333333333)"><rect width="6" height="6"/></g>
<g transform="translate(465.83333333333,365.83333333333) scale(3.4333333333333)"><rect width="6" height="6"/></g>
<g transform="translate(585.83333333333,365.83333333333) scale(3.4333333333333)"><rect width="6" height="6"/></g>
<g transform="translate(605.83333333333,365.83333333333) scale(3.4333333333333)"><rect width="6" height="6"/></g>
<g transform="translate(425.83333333333,385.83333333333) scale(3.4333333333333)"><rect width="6" height="6"/></g>
<g transform="translate(465.83333333333,385.83333333333) scale(3.4333333333333)"><rect width="6" height="6"/></g>
<g transform="translate(505.83333333333,385.83333333333) scale(3.4333333333333)"><rect width="6" height="6"/></g>
<g transform="translate(545.83333333333,385.83333333333) scale(3.4333333333333)"><rect width="6" height="6"/></g>
<g transform="translate(585.83333333333,385.83333333333) scale(3.4333333333333)"><rect width="6" height="6"/></g>
<g transform="translate(625.83333333333,385.83333333333) scale(3.4333333333333)"><rect width="6" height="6"/></g>
<g transform="translate(665.83333333333,385.83333333333) scale(3.4333333333333)"><rect width="6" height="6"/></g>
<g transform="translate(425.83333333333,405.83333333333) scale(3.4333333333333)"><rect width="6" height="6"/></g>
<g transform="translate(525.83333333333,405.83333333333) scale(3.4333333333333)"><rect width="6" height="6"/></g>
<g transform="translate(585.83333333333,405.83333333333) scale(3.4333333333333)"><rect width="6" height="6"/></g>
<g transform="translate(605.83333333333,405.83333333333) scale(3.4333333333333)"><rect width="6" height="6"/></g>
<g transform="translate(625.83333333333,405.83333333333) scale(3.4333333333333)"><rect width="6" height="6"/></g>
<g transform="translate(645.83333333333,405.83333333333) scale(3.4333333333333)"><rect width="6" height="6"/></g>
<g transform="translate(305.83333333333,425.83333333333) scale(3.4333333333333)"><rect width="6" height="6"/></g>
<g transform="translate(325.83333333333,425.83333333333) scale(3.4333333333333)"><rect width="6" height="6"/></g>
<g transform="translate(345.83333333333,425.83333333333) scale(3.4333333333333)"><rect width="6" height="6"/></g>
<g transform="translate(385.83333333333,425.83333333333) scale(3.4333333333333)"><rect width="6" height="6"/></g>
<g transform="translate(425.83333333333,425.83333333333) scale(3.4333333333333)"><rect width="6" height="6"/></g>
<g transform="translate(445.83333333333,425.83333333333) scale(3.4333333333333)"><rect width="6" height="6"/></g>
<g transform="translate(485.83333333333,425.83333333333) scale(3.4333333333333)"><rect width="6" height="6"/></g>
<g transform="translate(545.83333333333,425.83333333333) scale(3.4333333333333)"><rect width="6" height="6"/></g>
<g transform="translate(665.83333333333,425.83333333333) scale(3.4333333333333)"><rect width="6" height="6"/></g>
<g transform="translate(685.83333333333,425.83333333333) scale(3.4333333333333)"><rect width="6" height="6"/></g>
<g transform="translate(705.83333333333,425.83333333333) scale(3.4333333333333)"><rect width="6" height="6"/></g>
<g transform="translate(725.83333333333,425.83333333333) scale(3.4333333333333)"><rect width="6" height="6"/></g>
<g transform="translate(785.83333333333,425.83333333333) scale(3.4333333333333)"><rect width="6" height="6"/></g>
<g transform="translate(805.83333333333,425.83333333333) scale(3.4333333333333)"><rect width="6" height="6"/></g>
<g transform="translate(825.83333333333,425.83333333333) scale(3.4333333333333)"><rect width="6" height="6"/></g>
<g transform="translate(265.83333333333,445.83333333333) scale(3.4333333333333)"><rect width="6" height="6"/></g>
<g transform="translate(285.83333333333,445.83333333333) scale(3.4333333333333)"><rect width="6" height="6"/></g>
<g transform="translate(325.83333333333,445.83333333333) scale(3.4333333333333)"><rect width="6" height="6"/></g>
<g transform="translate(365.83333333333,445.83333333333) scale(3.4333333333333)"><rect width="6" height="6"/></g>
<g transform="translate(485.83333333333,445.83333333333) scale(3.4333333333333)"><rect width="6" height="6"/></g>
<g transform="translate(585.83333333333,445.83333333333) scale(3.4333333333333)"><rect width="6" height="6"/></g>
<g transform="translate(625.83333333333,445.83333333333) scale(3.4333333333333)"><rect width="6" height="6"/></g>
<g transform="translate(645.83333333333,445.83333333333) scale(3.4333333333333)"><rect width="6" height="6"/></g>
<g transform="translate(705.83333333333,445.83333333333) scale(3.4333333333333)"><rect width="6" height="6"/></g>
<g transform="translate(725.83333333333,445.83333333333) scale(3.4333333333333)"><rect width="6" height="6"/></g>
<g transform="translate(745.83333333333,445.83333333333) scale(3.4333333333333)"><rect width="6" height="6"/></g>
<g transform="translate(765.83333333333,445.83333333333) scale(3.4333333333333)"><rect width="6" height="6"/></g>
<g transform="translate(825.83333333333,445.83333333333) scale(3.4333333333333)"><rect width="6" height="6"/></g>
<g transform="translate(265.83333333333,465.83333333333) scale(3.4333333333333)"><rect width="6" height="6"/></g>
<g transform="translate(285.83333333333,465.83333333333) scale(3.4333333333333)"><rect width="6" height="6"/></g>
<g transform="translate(365.83333333333,465.83333333333) scale(3.4333333333333)"><rect width="6" height="6"/></g>
<g transform="translate(385.83333333333,465.83333333333) scale(3.4333333333333)"><rect width="6" height="6"/></g>
<g transform="translate(425.83333333333,465.83333333333) scale(3.4333333333333)"><rect width="6" height="6"/></g>
<g transform="translate(445.83333333333,465.83333333333) scale(3.4333333333333)"><rect width="6" height="6"/></g>
<g transform="translate(465.83333333333,465.83333333333) scale(3.4333333333333)"><rect width="6" height="6"/></g>
<g transform="translate(505.83333333333,465.83333333333) scale(3.4333333333333)"><rect width="6" height="6"/></g>
<g transform="translate(605.83333333333,465.83333333333) scale(3.4333333333333)"><rect width="6" height="6"/></g>
<g transform="translate(625.83333333333,465.83333333333) scale(3.4333333333333)"><rect width="6" height="6"/></g>
<g transform="translate(685.83333333333,465.83333333333) scale(3.4333333333333)"><rect width="6" height="6"/></g>
<g transform="translate(705.83333333333,465.83333333333) scale(3.4333333333333)"><rect width="6" height="6"/></g>
<g transform="translate(745.83333333333,465.83333333333) scale(3.4333333333333)"><rect width="6" height="6"/></g>
<g transform="translate(305.83333333333,485.83333333333) scale(3.4333333333333)"><rect width="6" height="6"/></g>
<g transform="translate(345.83333333333,485.83333333333) scale(3.4333333333333)"><rect width="6" height="6"/></g>
<g transform="translate(405.83333333333,485.83333333333) scale(3.4333333333333)"><rect width="6" height="6"/></g>
<g transform="translate(445.83333333333,485.83333333333) scale(3.4333333333333)"><rect width="6" height="6"/></g>
<g transform="translate(465.83333333333,485.83333333333) scale(3.4333333333333)"><rect width="6" height="6"/></g>
<g transform="translate(485.83333333333,485.83333333333) scale(3.4333333333333)"><rect width="6" height="6"/></g>
<g transform="translate(525.83333333333,485.83333333333) scale(3.4333333333333)"><rect width="6" height="6"/></g>
<g transform="translate(565.83333333333,485.83333333333) scale(3.4333333333333)"><rect width="6" height="6"/></g>
<g transform="translate(585.83333333333,485.83333333333) scale(3.4333333333333)"><rect width="6" height="6"/></g>
<g transform="translate(605.83333333333,485.83333333333) scale(3.4333333333333)"><rect width="6" height="6"/></g>
<g transform="translate(625.83333333333,485.83333333333) scale(3.4333333333333)"><rect width="6" height="6"/></g>
<g transform="translate(645.83333333333,485.83333333333) scale(3.4333333333333)"><rect width="6" height="6"/></g>
<g transform="translate(665.83333333333,485.83333333333) scale(3.4333333333333)"><rect width="6" height="6"/></g>
<g transform="translate(685.83333333333,485.83333333333) scale(3.4333333333333)"><rect width="6" height="6"/></g>
<g transform="translate(705.83333333333,485.83333333333) scale(3.4333333333333)"><rect width="6" height="6"/></g>
<g transform="translate(725.83333333333,485.83333333333) scale(3.4333333333333)"><rect width="6" height="6"/></g>
<g transform="translate(745.83333333333,485.83333333333) scale(3.4333333333333)"><rect width="6" height="6"/></g>
<g transform="translate(765.83333333333,485.83333333333) scale(3.4333333333333)"><rect width="6" height="6"/></g>
<g transform="translate(805.83333333333,485.83333333333) scale(3.4333333333333)"><rect width="6" height="6"/></g>
<g transform="translate(285.83333333333,505.83333333333) scale(3.4333333333333)"><rect width="6" height="6"/></g>
<g transform="translate(305.83333333333,505.83333333333) scale(3.4333333333333)"><rect width="6" height="6"/></g>
<g transform="translate(325.83333333333,505.83333333333) scale(3.4333333333333)"><rect width="6" height="6"/></g>
<g transform="translate(345.83333333333,505.83333333333) scale(3.4333333333333)"><rect width="6" height="6"/></g>
<g transform="translate(365.83333333333,505.83333333333) scale(3.4333333333333)"><rect width="6" height="6"/></g>
<g transform="translate(385.83333333333,505.83333333333) scale(3.4333333333333)"><rect width="6" height="6"/></g>
<g transform="translate(405.83333333333,505.83333333333) scale(3.4333333333333)"><rect width="6" height="6"/></g>
<g transform="translate(485.83333333333,505.83333333333) scale(3.4333333333333)"><rect width="6" height="6"/></g>
<g transform="translate(545.83333333333,505.83333333333) scale(3.4333333333333)"><rect width="6" height="6"/></g>
<g transform="translate(565.83333333333,505.83333333333) scale(3.4333333333333)"><rect width="6" height="6"/></g>
<g transform="translate(625.83333333333,505.83333333333) scale(3.4333333333333)"><rect width="6" height="6"/></g>
<g transform="translate(665.83333333333,505.83333333333) scale(3.4333333333333)"><rect width="6" height="6"/></g>
<g transform="translate(685.83333333333,505.83333333333) scale(3.4333333333333)"><rect width="6" height="6"/></g>
<g transform="translate(725.83333333333,505.83333333333) scale(3.4333333333333)"><rect width="6" height="6"/></g>
<g transform="translate(785.83333333333,505.83333333333) scale(3.4333333333333)"><rect width="6" height="6"/></g>
<g transform="translate(805.83333333333,505.83333333333) scale(3.4333333333333)"><rect width="6" height="6"/></g>
<g transform="translate(825.83333333333,505.83333333333) scale(3.4333333333333)"><rect width="6" height="6"/></g>
<g transform="translate(265.83333333333,525.83333333333) scale(3.4333333333333)"><rect width="6" height="6"/></g>
<g transform="translate(285.83333333333,525.83333333333) scale(3.4333333333333)"><rect width="6" height="6"/></g>
<g transform="translate(305.83333333333,525.83333333333) scale(3.4333333333333)"><rect width="6" height="6"/></g>
<g transform="translate(325.83333333333,525.83333333333) scale(3.4333333333333)"><rect width="6" height="6"/></g>
<g transform="translate(345.83333333333,525.83333333333) scale(3.4333333333333)"><rect width="6" height="6"/></g>
<g transform="translate(365.83333333333,525.83333333333) scale(3.4333333333333)"><rect width="6" height="6"/></g>
<g transform="translate(405.83333333333,525.83333333333) scale(3.4333333333333)"><rect width="6" height="6"/></g>
<g transform="translate(445.83333333333,525.83333333333) scale(3.4333333333333)"><rect width="6" height="6"/></g>
<g transform="translate(465.83333333333,525.83333333333) scale(3.4333333333333)"><rect width="6" height="6"/></g>
<g transform="translate(545.83333333333,525.83333333333) scale(3.4333333333333)"><rect width="6" height="6"/></g>
<g transform="translate(565.83333333333,525.83333333333) scale(3.4333333333333)"><rect width="6" height="6"/></g>
<g transform="translate(625.83333333333,525.83333333333) scale(3.4333333333333)"><rect width="6" height="6"/></g>
<g transform="translate(645.83333333333,525.83333333333) scale(3.4333333333333)"><rect width="6" height="6"/></g>
<g transform="translate(665.83333333333,525.83333333333) scale(3.4333333333333)"><rect width="6" height="6"/></g>
<g transform="translate(685.83333333333,525.83333333333) scale(3.4333333333333)"><rect width="6" height="6"/></g>
<g transform="translate(705.83333333333,525.83333333333) scale(3.4333333333333)"><rect width="6" height="6"/></g>
<g transform="translate(745.83333333333,525.83333333333) scale(3.4333333333333)"><rect width="6" height="6"/></g>
<g transform="translate(765.83333333333,525.83333333333) scale(3.4333333333333)"><rect width="6" height="6"/></g>
<g transform="translate(805.83333333333,525.83333333333) scale(3.4333333333333)"><rect width="6" height="6"/></g>
<g transform="translate(825.83333333333,525.83333333333) scale(3.4333333333333)"><rect width="6" height="6"/></g>
<g transform="translate(265.83333333333,545.83333333333) scale(3.4333333333333)"><rect width="6" height="6"/></g>
<g transform="translate(345.83333333333,545.83333333333) scale(3.4333333333333)"><rect width="6" height="6"/></g>
<g transform="translate(365.83333333333,545.83333333333) scale(3.4333333333333)"><rect width="6" height="6"/></g>
<g transform="translate(385.83333333333,545.83333333333) scale(3.4333333333333)"><rect width="6" height="6"/></g>
<g transform="translate(405.83333333333,545.83333333333) scale(3.4333333333333)"><rect width="6" height="6"/></g>
<g transform="translate(465.83333333333,545.83333333333) scale(3.4333333333333)"><rect width="6" height="6"/></g>
<g transform="translate(485.83333333333,545.83333333333) scale(3.4333333333333)"><rect width="6" height="6"/></g>
<g transform="translate(505.83333333333,545.83333333333) scale(3.4333333333333)"><rect width="6" height="6"/></g>
<g transform="translate(525.83333333333,545.83333333333) scale(3.4333333333333)"><rect width="6" height="6"/></g>
<g transform="translate(585.83333333333,545.83333333333) scale(3.4333333333333)"><rect width="6" height="6"/></g>
<g transform="translate(665.83333333333,545.83333333333) scale(3.4333333333333)"><rect width="6" height="6"/></g>
<g transform="translate(685.83333333333,545.83333333333) scale(3.4333333333333)"><rect width="6" height="6"/></g>
<g transform="translate(725.83333333333,545.83333333333) scale(3.4333333333333)"><rect width="6" height="6"/></g>
<g transform="translate(265.83333333333,565.83333333333) scale(3.4333333333333)"><rect width="6" height="6"/></g>
<g transform="translate(305.83333333333,565.83333333333) scale(3.4333333333333)"><rect width="6" height="6"/></g>
<g transform="translate(365.83333333333,565.83333333333) scale(3.4333333333333)"><rect width="6" height="6"/></g>
<g transform="translate(425.83333333333,565.83333333333) scale(3.4333333333333)"><rect width="6" height="6"/></g>
<g transform="translate(445.83333333333,565.83333333333) scale(3.4333333333333)"><rect width="6" height="6"/></g>
<g transform="translate(525.83333333333,565.83333333333) scale(3.4333333333333)"><rect width="6" height="6"/></g>
<g transform="translate(545.83333333333,565.83333333333) scale(3.4333333333333)"><rect width="6" height="6"/></g>
<g transform="translate(565.83333333333,565.83333333333) scale(3.4333333333333)"><rect width="6" height="6"/></g>
<g transform="translate(585.83333333333,565.83333333333) scale(3.4333333333333)"><rect width="6" height="6"/></g>
<g transform="translate(625.83333333333,565.83333333333) scale(3.4333333333333)"><rect width="6" height="6"/></g>
<g transform="translate(685.83333333333,565.83333333333) scale(3.4333333333333)"><rect width="6" height="6"/></g>
<g transform="translate(745.83333333333,565.83333333333) scale(3.4333333333333)"><rect width="6" height="6"/></g>
<g transform="translate(765.83333333333,565.83333333333) scale(3.4333333333333)"><rect width="6" height="6"/></g>
<g transform="translate(825.83333333333,565.83333333333) scale(3.4333333333333)"><rect width="6" height="6"/></g>
<g transform="translate(265.83333333333,585.83333333333) scale(3.4333333333333)"><rect width="6" height="6"/></g>
<g transform="translate(285.83333333333,585.83333333333) scale(3.4333333333333)"><rect width="6" height="6"/></g>
<g transform="translate(325.83333333333,585.83333333333) scale(3.4333333333333)"><rect width="6" height="6"/></g>
<g transform="translate(385.83333333333,585.83333333333) scale(3.4333333333333)"><rect width="6" height="6"/></g>
<g transform="translate(425.83333333333,585.83333333333) scale(3.4333333333333)"><rect width="6" height="6"/></g>
<g transform="translate(525.83333333333,585.83333333333) scale(3.4333333333333)"><rect width="6" height="6"/></g>
<g transform="translate(605.83333333333,585.83333333333) scale(3.4333333333333)"><rect width="6" height="6"/></g>
<g transform="translate(625.83333333333,585.83333333333) scale(3.4333333333333)"><rect width="6" height="6"/></g>
<g transform="translate(725.83333333333,585.83333333333) scale(3.4333333333333)"><rect width="6" height="6"/></g>
<g transform="translate(765.83333333333,585.83333333333) scale(3.4333333333333)"><rect width="6" height="6"/></g>
<g transform="translate(785.83333333333,585.83333333333) scale(3.4333333333333)"><rect width="6" height="6"/></g>
<g transform="translate(825.83333333333,585.83333333333) scale(3.4333333333333)"><rect width="6" height="6"/></g>
<g transform="translate(265.83333333333,605.83333333333) scale(3.4333333333333)"><rect width="6" height="6"/></g>
<g transform="translate(285.83333333333,605.83333333333) scale(3.4333333333333)"><rect width="6" height="6"/></g>
<g transform="translate(345.83333333333,605.83333333333) scale(3.4333333333333)"><rect width="6" height="6"/></g>
<g transform="translate(405.83333333333,605.83333333333) scale(3.4333333333333)"><rect width="6" height="6"/></g>
<g transform="translate(425.83333333333,605.83333333333) scale(3.4333333333333)"><rect width="6" height="6"/></g>
<g transform="translate(465.83333333333,605.83333333333) scale(3.4333333333333)"><rect width="6" height="6"/></g>
<g transform="translate(585.83333333333,605.83333333333) scale(3.4333333333333)"><rect width="6" height="6"/></g>
<g transform="translate(605.83333333333,605.83333333333) scale(3.4333333333333)"><rect width="6" height="6"/></g>
<g transform="translate(645.83333333333,605.83333333333) scale(3.4333333333333)"><rect width="6" height="6"/></g>
<g transform="translate(665.83333333333,605.83333333333) scale(3.4333333333333)"><rect width="6" height="6"/></g>
<g transform="translate(685.83333333333,605.83333333333) scale(3.4333333333333)"><rect width="6" height="6"/></g>
<g transform="translate(745.83333333333,605.83333333333) scale(3.4333333333333)"><rect width="6" height="6"/></g>
<g transform="translate(765.83333333333,605.83333333333) scale(3.4333333333333)"><rect width="6" height="6"/></g>
<g transform="translate(805.83333333333,605.83333333333) scale(3.4333333333333)"><rect width="6" height="6"/></g>
<g transform="translate(825.83333333333,605.83333333333) scale(3.4333333333333)"><rect width="6" height="6"/></g>
<g transform="translate(265.83333333333,625.83333333333) scale(3.4333333333333)"><rect width="6" height="6"/></g>
<g transform="translate(325.83333333333,625.83333333333) scale(3.4333333333333)"><rect width="6" height="6"/></g>
<g transform="translate(345.83333333333,625.83333333333) scale(3.4333333333333)"><rect width="6" height="6"/></g>
<g transform="translate(365.83333333333,625.83333333333) scale(3.4333333333333)"><rect width="6" height="6"/></g>
<g transform="translate(385.83333333333,625.83333333333) scale(3.4333333333333)"><rect width="6" height="6"/></g>
<g transform="translate(405.83333333333,625.83333333333) scale(3.4333333333333)"><rect width="6" height="6"/></g>
<g transform="translate(425.83333333333,625.83333333333) scale(3.4333333333333)"><rect width="6" height="6"/></g>
<g transform="translate(465.83333333333,625.83333333333) scale(3.4333333333333)"><rect width="6" height="6"/></g>
<g transform="translate(485.83333333333,625.83333333333) scale(3.4333333333333)"><rect width="6" height="6"/></g>
<g transform="translate(565.83333333333,625.83333333333) scale(3.4333333333333)"><rect width="6" height="6"/></g>
<g transform="translate(585.83333333333,625.83333333333) scale(3.4333333333333)"><rect width="6" height="6"/></g>
<g transform="translate(605.83333333333,625.83333333333) scale(3.4333333333333)"><rect width="6" height="6"/></g>
<g transform="translate(665.83333333333,625.83333333333) scale(3.4333333333333)"><rect width="6" height="6"/></g>
<g transform="translate(705.83333333333,625.83333333333) scale(3.4333333333333)"><rect width="6" height="6"/></g>
<g transform="translate(725.83333333333,625.83333333333) scale(3.4333333333333)"><rect width="6" height="6"/></g>
<g transform="translate(765.83333333333,625.83333333333) scale(3.4333333333333)"><rect width="6" height="6"/></g>
<g transform="translate(265.83333333333,645.83333333333) scale(3.4333333333333)"><rect width="6" height="6"/></g>
<g transform="translate(325.83333333333,645.83333333333) scale(3.4333333333333)"><rect width="6" height="6"/></g>
<g transform="translate(345.83333333333,645.83333333333) scale(3.4333333333333)"><rect width="6" height="6"/></g>
<g transform="translate(365.83333333333,645.83333333333) scale(3.4333333333333)"><rect width="6" height="6"/></g>
<g transform="translate(405.83333333333,645.83333333333) scale(3.4333333333333)"><rect width="6" height="6"/></g>
<g transform="translate(445.83333333333,645.83333333333) scale(3.4333333333333)"><rect width="6" height="6"/></g>
<g transform="translate(485.83333333333,645.83333333333) scale(3.4333333333333)"><rect width="6" height="6"/></g>
<g transform="translate(605.83333333333,645.83333333333) scale(3.4333333333333)"><rect width="6" height="6"/></g>
<g transform="translate(625.83333333333,645.83333333333) scale(3.4333333333333)"><rect width="6" height="6"/></g>
<g transform="translate(645.83333333333,645.83333333333) scale(3.4333333333333)"><rect width="6" height="6"/></g>
<g transform="translate(665.83333333333,645.83333333333) scale(3.4333333333333)"><rect width="6" height="6"/></g>
<g transform="translate(705.83333333333,645.83333333333) scale(3.4333333333333)"><rect width="6" height="6"/></g>
<g transform="translate(725.83333333333,645.83333333333) scale(3.4333333333333)"><rect width="6" height="6"/></g>
<g transform="translate(765.83333333333,645.83333333333) scale(3.4333333333333)"><rect width="6" height="6"/></g>
<g transform="translate(825.83333333333,645.83333333333) scale(3.4333333333333)"><rect width="6" height="6"/></g>
<g transform="translate(265.83333333333,665.83333333333) scale(3.4333333333333)"><rect width="6" height="6"/></g>
<g transform="translate(325.83333333333,665.83333333333) scale(3.4333333333333)"><rect width="6" height="6"/></g>
<g transform="translate(345.83333333333,665.83333333333) scale(3.4333333333333)"><rect width="6" height="6"/></g>
<g transform="translate(365.83333333333,665.83333333333) scale(3.4333333333333)"><rect width="6" height="6"/></g>
<g transform="translate(385.83333333333,665.83333333333) scale(3.4333333333333)"><rect width="6" height="6"/></g>
<g transform="translate(405.83333333333,665.83333333333) scale(3.4333333333333)"><rect width="6" height="6"/></g>
<g transform="translate(465.83333333333,665.83333333333) scale(3.4333333333333)"><rect width="6" height="6"/></g>
<g transform="translate(485.83333333333,665.83333333333) scale(3.4333333333333)"><rect width="6" height="6"/></g>
<g transform="translate(505.83333333333,665.83333333333) scale(3.4333333333333)"><rect width="6" height="6"/></g>
<g transform="translate(525.83333333333,665.83333333333) scale(3.4333333333333)"><rect width="6" height="6"/></g>
<g transform="translate(565.83333333333,665.83333333333) scale(3.4333333333333)"><rect width="6" height="6"/></g>
<g transform="translate(605.83333333333,665.83333333333) scale(3.4333333333333)"><rect width="6" height="6"/></g>
<g transform="translate(665.83333333333,665.83333333333) scale(3.4333333333333)"><rect width="6" height="6"/></g>
<g transform="translate(685.83333333333,665.83333333333) scale(3.4333333333333)"><rect width="6" height="6"/></g>
<g transform="translate(705.83333333333,665.83333333333) scale(3.4333333333333)"><rect width="6" height="6"/></g>
<g transform="translate(725.83333333333,665.83333333333) scale(3.4333333333333)"><rect width="6" height="6"/></g>
<g transform="translate(745.83333333333,665.83333333333) scale(3.4333333333333)"><rect width="6" height="6"/></g>
<g transform="translate(765.83333333333,665.83333333333) scale(3.4333333333333)"><rect width="6" height="6"/></g>
<g transform="translate(785.83333333333,665.83333333333) scale(3.4333333333333)"><rect width="6" height="6"/></g>
<g transform="translate(425.83333333333,685.83333333333) scale(3.4333333333333)"><rect width="6" height="6"/></g>
<g transform="translate(485.83333333333,685.83333333333) scale(3.4333333333333)"><rect width="6" height="6"/></g>
<g transform="translate(525.83333333333,685.83333333333) scale(3.4333333333333)"><rect width="6" height="6"/></g>
<g transform="translate(605.83333333333,685.83333333333) scale(3.4333333333333)"><rect width="6" height="6"/></g>
<g transform="translate(625.83333333333,685.83333333333) scale(3.4333333333333)"><rect width="6" height="6"/></g>
<g transform="translate(645.83333333333,685.83333333333) scale(3.4333333333333)"><rect width="6" height="6"/></g>
<g transform="translate(665.83333333333,685.83333333333) scale(3.4333333333333)"><rect width="6" height="6"/></g>
<g transform="translate(745.83333333333,685.83333333333) scale(3.4333333333333)"><rect width="6" height="6"/></g>
<g transform="translate(765.83333333333,685.83333333333) scale(3.4333333333333)"><rect width="6" height="6"/></g>
<g transform="translate(805.83333333333,685.83333333333) scale(3.4333333333333)"><rect width="6" height="6"/></g>
<g transform="translate(825.83333333333,685.83333333333) scale(3.4333333333333)"><rect width="6" height="6"/></g>
<g transform="translate(505.83333333333,705.83333333333) scale(3.4333333333333)"><rect width="6" height="6"/></g>
<g transform="translate(525.83333333333,705.83333333333) scale(3.4333333333333)"><rect width="6" height="6"/></g>
<g transform="translate(545.83333333333,705.83333333333) scale(3.4333333333333)"><rect width="6" height="6"/></g>
<g transform="translate(565.83333333333,705.83333333333) scale(3.4333333333333)"><rect width="6" height="6"/></g>
<g transform="translate(645.83333333333,705.83333333333) scale(3.4333333333333)"><rect width="6" height="6"/></g>
<g transform="translate(665.83333333333,705.83333333333) scale(3.4333333333333)"><rect width="6" height="6"/></g>
<g transform="translate(705.83333333333,705.83333333333) scale(3.4333333333333)"><rect width="6" height="6"/></g>
<g transform="translate(745.83333333333,705.83333333333) scale(3.4333333333333)"><rect width="6" height="6"/></g>
<g transform="translate(445.83333333333,725.83333333333) scale(3.4333333333333)"><rect width="6" height="6"/></g>
<g transform="translate(485.83333333333,725.83333333333) scale(3.4333333333333)"><rect width="6" height="6"/></g>
<g transform="translate(585.83333333333,725.83333333333) scale(3.4333333333333)"><rect width="6" height="6"/></g>
<g transform="translate(645.83333333333,725.83333333333) scale(3.4333333333333)"><rect width="6" height="6"/></g>
<g transform="translate(665.83333333333,725.83333333333) scale(3.4333333333333)"><rect width="6" height="6"/></g>
<g transform="translate(745.83333333333,725.83333333333) scale(3.4333333333333)"><rect width="6" height="6"/></g>
<g transform="translate(765.83333333333,725.83333333333) scale(3.4333333333333)"><rect width="6" height="6"/></g>
<g transform="translate(825.83333333333,725.83333333333) scale(3.4333333333333)"><rect width="6" height="6"/></g>
<g transform="translate(425.83333333333,745.83333333333) scale(3.4333333333333)"><rect width="6" height="6"/></g>
<g transform="translate(465.83333333333,745.83333333333) scale(3.4333333333333)"><rect width="6" height="6"/></g>
<g transform="translate(585.83333333333,745.83333333333) scale(3.4333333333333)"><rect width="6" height="6"/></g>
<g transform="translate(605.83333333333,745.83333333333) scale(3.4333333333333)"><rect width="6" height="6"/></g>
<g transform="translate(625.83333333333,745.83333333333) scale(3.4333333333333)"><rect width="6" height="6"/></g>
<g transform="translate(665.83333333333,745.83333333333) scale(3.4333333333333)"><rect width="6" height="6"/></g>
<g transform="translate(685.83333333333,745.83333333333) scale(3.4333333333333)"><rect width="6" height="6"/></g>
<g transform="translate(705.83333333333,745.83333333333) scale(3.4333333333333)"><rect width="6" height="6"/></g>
<g transform="translate(725.83333333333,745.83333333333) scale(3.4333333333333)"><rect width="6" height="6"/></g>
<g transform="translate(745.83333333333,745.83333333333) scale(3.4333333333333)"><rect width="6" height="6"/></g>
<g transform="translate(765.83333333333,745.83333333333) scale(3.4333333333333)"><rect width="6" height="6"/></g>
<g transform="translate(785.83333333333,745.83333333333) scale(3.4333333333333)"><rect width="6" height="6"/></g>
<g transform="translate(805.83333333333,745.83333333333) scale(3.4333333333333)"><rect width="6" height="6"/></g>
<g transform="translate(425.83333333333,765.83333333333) scale(3.4333333333333)"><rect width="6" height="6"/></g>
<g transform="translate(465.83333333333,765.83333333333) scale(3.4333333333333)"><rect width="6" height="6"/></g>
<g transform="translate(505.83333333333,765.83333333333) scale(3.4333333333333)"><rect width="6" height="6"/></g>
<g transform="translate(545.83333333333,765.83333333333) scale(3.4333333333333)"><rect width="6" height="6"/></g>
<g transform="translate(645.83333333333,765.83333333333) scale(3.4333333333333)"><rect width="6" height="6"/></g>
<g transform="translate(665.83333333333,765.83333333333) scale(3.4333333333333)"><rect width="6" height="6"/></g>
<g transform="translate(685.83333333333,765.83333333333) scale(3.4333333333333)"><rect width="6" height="6"/></g>
<g transform="translate(725.83333333333,765.83333333333) scale(3.4333333333333)"><rect width="6" height="6"/></g>
<g transform="translate(425.83333333333,785.83333333333) scale(3.4333333333333)"><rect width="6" height="6"/></g>
<g transform="translate(445.83333333333,785.83333333333) scale(3.4333333333333)"><rect width="6" height="6"/></g>
<g transform="translate(465.83333333333,785.83333333333) scale(3.4333333333333)"><rect width="6" height="6"/></g>
<g transform="translate(505.83333333333,785.83333333333) scale(3.4333333333333)"><rect width="6" height="6"/></g>
<g transform="translate(525.83333333333,785.83333333333) scale(3.4333333333333)"><rect width="6" height="6"/></g>
<g transform="translate(625.83333333333,785.83333333333) scale(3.4333333333333)"><rect width="6" height="6"/></g>
<g transform="translate(645.83333333333,785.83333333333) scale(3.4333333333333)"><rect width="6" height="6"/></g>
<g transform="translate(665.83333333333,785.83333333333) scale(3.4333333333333)"><rect width="6" height="6"/></g>
<g transform="translate(685.83333333333,785.83333333333) scale(3.4333333333333)"><rect width="6" height="6"/></g>
<g transform="translate(705.83333333333,785.83333333333) scale(3.4333333333333)"><rect width="6" height="6"/></g>
<g transform="translate(725.83333333333,785.83333333333) scale(3.4333333333333)"><rect width="6" height="6"/></g>
<g transform="translate(745.83333333333,785.83333333333) scale(3.4333333333333)"><rect width="6" height="6"/></g>
<g transform="translate(765.83333333333,785.83333333333) scale(3.4333333333333)"><rect width="6" height="6"/></g>
<g transform="translate(785.83333333333,785.83333333333) scale(3.4333333333333)"><rect width="6" height="6"/></g>
<g transform="translate(805.83333333333,785.83333333333) scale(3.4333333333333)"><rect width="6" height="6"/></g>
<g transform="translate(465.83333333333,805.83333333333) scale(3.4333333333333)"><rect width="6" height="6"/></g>
<g transform="translate(485.83333333333,805.83333333333) scale(3.4333333333333)"><rect width="6" height="6"/></g>
<g transform="translate(545.83333333333,805.83333333333) scale(3.4333333333333)"><rect width="6" height="6"/></g>
<g transform="translate(585.83333333333,805.83333333333) scale(3.4333333333333)"><rect width="6" height="6"/></g>
<g transform="translate(605.83333333333,805.83333333333) scale(3.4333333333333)"><rect width="6" height="6"/></g>
<g transform="translate(625.83333333333,805.83333333333) scale(3.4333333333333)"><rect width="6" height="6"/></g>
<g transform="translate(645.83333333333,805.83333333333) scale(3.4333333333333)"><rect width="6" height="6"/></g>
<g transform="translate(745.83333333333,805.83333333333) scale(3.4333333333333)"><rect width="6" height="6"/></g>
<g transform="translate(805.83333333333,805.83333333333) scale(3.4333333333333)"><rect width="6" height="6"/></g>
<g transform="translate(445.83333333333,825.83333333333) scale(3.4333333333333)"><rect width="6" height="6"/></g>
<g transform="translate(465.83333333333,825.83333333333) scale(3.4333333333333)"><rect width="6" height="6"/></g>
<g transform="translate(485.83333333333,825.83333333333) scale(3.4333333333333)"><rect width="6" height="6"/></g>
<g transform="translate(525.83333333333,825.83333333333) scale(3.4333333333333)"><rect width="6" height="6"/></g>
<g transform="translate(545.83333333333,825.83333333333) scale(3.4333333333333)"><rect width="6" height="6"/></g>
<g transform="translate(565.83333333333,825.83333333333) scale(3.4333333333333)"><rect width="6" height="6"/></g>
<g transform="translate(625.83333333333,825.83333333333) scale(3.4333333333333)"><rect width="6" height="6"/></g>
<g transform="translate(645.83333333333,825.83333333333) scale(3.4333333333333)"><rect width="6" height="6"/></g>
<g transform="translate(745.83333333333,825.83333333333) scale(3.4333333333333)"><rect width="6" height="6"/></g>
<g transform="translate(785.83333333333,825.83333333333) scale(3.4333333333333)"><rect width="6" height="6"/></g>
</g></g></mask></defs>
<rect width="654.95694444444" height="654.95694444444" fill="#ffffff" x="231.59722222222" y="231.59722222222" />
<g fill="#000000" transform="scale(46.319444444444)"><path d="M17.6,0H6.4c-1,0-1.8,0.8-1.8,1.8v20.4c0,1,0.8,1.8,1.8,1.8h11.1c1,0,1.8-0.8,1.8-1.8V1.8C19.4,0.8,18.6,0,17.6,0z M11.2,2.3h2.7c0.1,0,0.2,0.1,0.2,0.2S14,2.7,13.9,2.7h-2.7c-0.1,0-0.2-0.1-0.2-0.2S11.1,2.3,11.2,2.3z M10.1,2.3 c0.1,0,0.2,0.1,0.2,0.2s-0.1,0.2-0.2,0.2c-0.1,0-0.2-0.1-0.2-0.2S10,2.3,10.1,2.3z M19,19H5V5h14V19z"/></g>
<rect x="0" y="0" width="1111.6666666667" height="1130.8263888889" mask="url(#qrmask)" fill="#000000" />
<g><g transform="translate(265.83333333333,265.83333333333)"  fill="#000000"><g transform="scale(10)"><path d="M0,0v14h14V0H0z M12,12H2V2h10V12z"/></g></g>
<g transform="translate(305.83333333333,305.83333333333)"  fill="#000000"><g transform="scale(10)"><rect width="6" height="6"/></g></g>
<g transform="translate(705.83333333333,265.83333333333)"  fill="#000000"><g transform="scale(10)"><path d="M0,0v14h14V0H0z M12,12H2V2h10V12z"/></g></g>
<g transform="translate(745.83333333333,305.83333333333)"  fill="#000000"><g transform="scale(10)"><rect width="6" height="6"/></g></g>
<g transform="translate(265.83333333333,705.83333333333)"  fill="#000000"><g transform="scale(10)"><path d="M0,0v14h14V0H0z M12,12H2V2h10V12z"/></g></g>
<g transform="translate(305.83333333333,745.83333333333)"  fill="#000000"><g transform="scale(10)"><rect width="6" height="6"/></g></g></g>
<text fill="#FFFFFF" font-family="Arial, Helvetica, sans-serif" font-size="93.565277777778px" text-anchor="middle" x="525.625" y="174.94497863248" transform="translate(0,856.90972222222)">SCAN ME</text></svg>